<?xml version="1.0" encoding="utf-8"?>
<!-- Generator: Adobe Illustrator 15.0.0, SVG Export Plug-In . SVG Version: 6.00 Build 0)  -->
<!DOCTYPE svg PUBLIC "-//W3C//DTD SVG 1.1//EN" "http://www.w3.org/Graphics/SVG/1.1/DTD/svg11.dtd">
<svg version="1.1"
	 id="svg2" inkscape:version="0.48.1 r9760" sodipodi:docname="icon.svg" inkscape:export-filename="icon.png" inkscape:export-xdpi="90" inkscape:export-ydpi="90" xmlns:inkscape="http://www.inkscape.org/namespaces/inkscape" xmlns:sodipodi="http://sodipodi.sourceforge.net/DTD/sodipodi-0.dtd" xmlns:rdf="http://www.w3.org/1999/02/22-rdf-syntax-ns#" xmlns:svg="http://www.w3.org/2000/svg" xmlns:cc="http://creativecommons.org/ns#" xmlns:dc="http://purl.org/dc/elements/1.1/"
	 xmlns="http://www.w3.org/2000/svg" xmlns:xlink="http://www.w3.org/1999/xlink" x="0px" y="0px" width="96px" height="96px"
	 viewBox="0 0 96 96" enable-background="new 0 0 96 96" xml:space="preserve">
<sodipodi:namedview  id="base" pagecolor="#000000" borderopacity="1" bordercolor="#000000" inkscape:window-maximized="0" inkscape:cx="30.879929" inkscape:pageopacity="1" inkscape:pageshadow="2" inkscape:zoom="5.6568542" inkscape:cy="56.571887" inkscape:document-units="px" showborder="true" inkscape:current-layer="layer1" showgrid="false" inkscape:showpageshadow="false" inkscape:window-width="1735" inkscape:window-height="939" inkscape:window-x="403" inkscape:window-y="280" gridtolerance="3" objecttolerance="9" showguides="true" inkscape:guide-bbox="true">
	<inkscape:grid  type="xygrid" id="grid2985" visible="true" empspacing="8" enabled="true" snapvisiblegridlinesonly="true">
		</inkscape:grid>
</sodipodi:namedview>
<g id="layer2" inkscape:groupmode="layer" sodipodi:insensitive="true" inkscape:label="Background">
	
		<linearGradient id="rect4176_1_" gradientUnits="userSpaceOnUse" x1="48" y1="81.2471" x2="48" y2="176.5639" gradientTransform="matrix(1 0 0 -1 0 177)">
		<stop  offset="0" style="stop-color:#333333"/>
		<stop  offset="1" style="stop-color:#9BA1B1"/>
	</linearGradient>
	<rect id="rect4176" fill="url(#rect4176_1_)" width="96" height="96"/>
</g>
<g id="layer1" transform="translate(0,-956.3622)" inkscape:groupmode="layer" inkscape:label="Content">
	<g id="g4768" transform="translate(53.708835,3.1011756)">
	</g>
	<text transform="matrix(1 0 0 1 13.4443 1037.1337)" fill="#FFFFFF" font-family="'ArialMT'" font-size="16.8068">Fabricteo</text>
	<g id="g5930" transform="translate(0,-1.4142136)">
		<path id="rect5058" fill="none" stroke="#FFFFFF" stroke-width="4.643" d="M36.625,979.328h22.75c2.692,0,4.875,2.183,4.875,4.875
			v22.75c0,2.692-2.183,4.875-4.875,4.875h-22.75c-2.692,0-4.875-2.183-4.875-4.875v-22.75
			C31.75,981.511,33.933,979.328,36.625,979.328z"/>
		<path id="path5925" inkscape:connector-curvature="0" fill="#FFFFFF" d="M58.938,968.936v4.656h2.969
			c4.678,0,8.375,3.666,8.375,8.344v2.719h4.656v-2.719c0-7.17-5.861-13-13.031-13H58.938z"/>
		<path id="rect5890" inkscape:connector-curvature="0" fill="#FFFFFF" d="M21.062,1006.529v2.656c0,7.169,5.861,13,13.031,13h2.969
			v-4.625h-2.969c-4.678,0-8.375-3.697-8.375-8.375v-2.656H21.062z"/>
	</g>
</g>
<g id="layer3" transform="translate(0,80)" inkscape:groupmode="layer" sodipodi:insensitive="true" inkscape:label="SDK">
	<path id="path4259" inkscape:connector-curvature="0" fill="#FFF995" d="M0-56l24-24h16L0-40V-56z"/>
	<text transform="matrix(0.7071 -0.7071 0.7071 0.7071 10.6152 -52.5698)" font-family="'Arial-BoldMT'" font-size="11.372">TEST</text>
</g>
<g id="layer4" inkscape:groupmode="layer" sodipodi:insensitive="true" inkscape:label="Corners">
	<path id="rect4798" inkscape:connector-curvature="0" d="M-5.031-3.875v103.75h106.062V-3.875H-5.031z M14,0h68
		c7.758,0,14,6.243,14,14v68c0,7.758-6.242,14-14,14H14C6.243,96,0,89.758,0,82V14C0,6.243,6.243,0,14,0z"/>
</g>
</svg>
